# AST/ASF file generated using VICON BodyLanguage
# -----------------------------------------------
:version 1.10
:name VICON
:units
  mass 1.0
  length 0.45
  angle deg
:documentation
   .ast/.asf automatically generated from VICON data using
   VICON BodyBuilder and BodyLanguage model FoxedUp or BRILLIANT.MOD
:root
   order TX TY TZ RX RY RZ
   axis XYZ
   position 0 0 0  
   orientation 0 0 0 
:bonedata
  begin
     id 1 
     name lhipjoint
     direction 0.707368 -0.647095 0.284426 
     length 2.60678 
     axis 0 0 0  XYZ
  end
  begin
     id 2 
     name lfemur
     direction 0.34202 -0.939693 0  
     length 6.63812  
     axis 0 0 20  XYZ
    dof rx ry rz
    limits (-160.0 20.0)
           (-70.0 70.0)
           (-60.0 70.0)
  end
  begin
     id 3 
     name ltibia
     direction 0.34202 -0.939693 0   
     length 7.51178   
     axis 0 0 20   XYZ
    dof rx
    limits (-10.0 170.0)
  end
  begin
     id 4 
     name lfoot
     direction 0.121251 -0.333133 0.935051   
     length 1.83716   
     axis -90 7.62852e-016 20   XYZ
    dof rx rz
    limits (-45.0 90.0)
           (-70.0 20.0)
  end
  begin
     id 5 
     name ltoes
     direction 1.53611e-011 -4.21962e-011 1   
     length 0.916133   
     axis -90 7.62852e-016 20   XYZ
    dof rx
    limits (-90.0 20.0)
  end
  begin
     id 6 
     name rhipjoint
     direction -0.692419 -0.660507 0.290321   
     length 2.55385  
     axis 0 0 0  XYZ 
  end
  begin
     id 7 
     name rfemur
     direction -0.34202 -0.939693 0   
     length 7.29079   
     axis 0 0 -20   XYZ
    dof rx ry rz
    limits (-160.0 20.0)
           (-70.0 70.0)
           (-70.0 60.0)
  end
  begin
     id 8 
     name rtibia
     direction -0.34202 -0.939693 0   
     length 7.47143   
     axis 0 0 -20   XYZ
    dof rx
    limits (-10.0 170.0)
 end
 begin
     id 9 
     name rfoot
     direction -0.119907 -0.329441 0.936532   
     length 1.79439  
     axis -90 -7.62852e-016 -20   XYZ
    dof rx rz
    limits (-45.0 90.0)
           (-20.0 70.0)
  end
  begin
     id 10 
     name rtoes
     direction -1.53571e-011 -4.21961e-011 1   
     length 0.896039   
     axis -90 -7.62852e-016 -20   XYZ
    dof rx
    limits (-90.0 20.0)
  end
  begin
     id 11 
     name lowerback
     direction 0.0367721 0.992912 -0.113016   
     length 1.73542   
     axis 0 0 0   XYZ
    dof rx ry rz
    limits (-20.0 45.0)
           (-30.0 30.0)
           (-30.0 30.0)
  end
  begin
     id 12 
     name upperback
     direction -0.000314626 0.990678 0.136227   
     length 1.7514   
     axis 0 0 0   XYZ
    dof rx ry rz
    limits (-20.0 45.0)
           (-30.0 30.0)
           (-30.0 30.0)
  end
  begin
     id 13 
     name thorax
     direction -0.0226159 0.981151 0.191917   
     length 1.71471   
     axis 0 0 0   XYZ
    dof rx ry rz
    limits (-20.0 45.0)
           (-30.0 30.0)
           (-30.0 30.0)
  end
  begin
     id 14 
     name lowerneck
     direction 0.0219333 0.998071 0.0580739   
     length 1.65882   
     axis 0 0 0   XYZ
    dof rx ry rz
    limits (-20.0 45.0)
           (-30.0 30.0)
           (-30.0 30.0)
  end
  begin
     id 15 
     name upperneck
     direction 0.0384529 0.980058 -0.194957   
     length 1.6612   
     axis 0 0 0   XYZ
    dof rx ry rz
    limits (-20.0 45.0)
           (-30.0 30.0)
           (-30.0 30.0)
  end
  begin
     id 16
     name head
     direction 0.00592123 0.997421 -0.0715234  
     length 1.68077  
     axis 0 0 0   XYZ
    dof rx ry rz
    limits (-20.0 45.0)
           (-30.0 30.0)
           (-30.0 30.0)
  end
  begin
     id 17 
     name lclavicle
     direction 0.904803 0.417826 0.0821728  
     length 3.42227  
     axis 0 0 0   XYZ
    dof ry rz
    limits (-20.0 10.0)
           (0.0 20.0)
  end
  begin
     id 18 
     name lhumerus
     direction 1 -4.48965e-011 -2.68786e-027   
     length 5.11878   
     axis -180 -30 -90   XYZ
    dof rx ry rz
    limits (-60.0 90.0)
           (-90.0 90.0)
           (-90.0 90.0)
  end
  begin
     id 19
     name lradius
     direction 1 -4.48965e-011 2.61168e-028   
     length 3.59971   
     axis -180 -30 -90   XYZ
    dof rx
    limits (-10.0 170.0)
  end
  begin
     id 20
     name lwrist
     direction 1 -4.48965e-011 1.58672e-027   
     length 1.79985   
     axis -1.65735e-015 90 90   XYZ
    dof ry
    limits (-180.0 0.0)
 end
  begin
     id 21 
     name lhand
     direction 1 -4.48942e-011 3.17344e-027   
     length 0.62877   
     axis -2.02492e-015 90 90   XYZ
    dof rx rz
    limits (-90.0 90.0)
           (-45.0 45.0)
  end
  begin
     id 22 
     name lfingers
     direction 1 -4.49011e-011 6.34687e-027   
     length 0.506931   
     axis -4.04985e-015 90 90   XYZ
    dof rx
    limits (0.0 90.0)
  end
  begin
     id 23
     name lthumb
     direction 0.707107 -6.34982e-011 0.707107   
     length 0.727854   
     axis -90 45 2.85299e-015   XYZ
    dof rx rz
    limits (-45.0 45.0)
           (-45.0 45.0)
  end
  begin
     id 24 
     name rclavicle
     direction -0.945647 0.32488 0.0143075   
     length 3.52737  
     axis 0 0 0   XYZ 
    dof ry rz
    limits (-10.0 20.0)
           (-20.0 0.0)
  end
  begin
     id 25 
     name rhumerus
     direction -1 -4.48962e-011 1.92182e-027  
     length 5.4902   
     axis -180 30 90   XYZ
    dof rx ry rz
    limits (-90.0 60.0)
           (-90.0 90.0)
           (-90.0 90.0)
  end
  begin
     id 26 
     name rradius
     direction -1 -4.48967e-011 -5.97193e-028   
     length 3.20659   
     axis -180 30 90   XYZ
    dof rx
    limits (-10.0 170.0)
  end
  begin
     id 27 
     name rwrist
     direction -1 -4.48964e-011 1.58672e-027   
     length 1.6033   
     axis -1.65735e-015 -90 -90   XYZ
    dof ry
    limits (-180.0 0.0)
  end
  begin
     id 28
     name rhand
     direction -1 -4.49006e-011 3.17344e-027   
     length 0.691885   
     axis -2.02492e-015 -90 -90   XYZ
    dof rx rz
    limits (-90.0 90.0)
           (-45.0 45.0)
  end
  begin
     id 29
     name rfingers
     direction -1 -4.48908e-011 6.34687e-027   
     length 0.557815   
     axis -4.04985e-015 -90 -90   XYZ
    dof rx
    limits (0.0 90.0)
  end
  begin
     id 30
     name rthumb
     direction -0.707107 -6.34999e-011 0.707107   
     length 0.800915   
     axis -90 -45 -2.85299e-015   XYZ
    dof rx rz
    limits (-45.0 45.0)
           (-45.0 45.0)
  end
:hierarchy
  begin
    root lhipjoint rhipjoint lowerback
    lhipjoint lfemur
    lfemur ltibia
    ltibia lfoot
    lfoot ltoes
    rhipjoint rfemur
    rfemur rtibia
    rtibia rfoot
    rfoot rtoes
    lowerback upperback
    upperback thorax
    thorax lowerneck lclavicle rclavicle
    lowerneck upperneck
    upperneck head
    lclavicle lhumerus
    lhumerus lradius
    lradius lwrist
    lwrist lhand lthumb
    lhand lfingers
    rclavicle rhumerus
    rhumerus rradius
    rradius rwrist
    rwrist rhand rthumb
    rhand rfingers
  end

#!OML:ASF I:\Actors\actors\Patient Classification 1\Patient 1\Session 1\Subject1.ASF
:FULLY-SPECIFIED
:DEGREES
78
root 0.670232 17.4092 9.02649 11.1677 -2.19304 -10.3578
lowerback -1.20574 1.22241 6.48686
upperback -10.6126 2.17225 2.57913
thorax -10.5382 0.621611 -1.01234
lowerneck -7.39418 -10.6576 -8.06458
upperneck 23.6219 -15.4183 6.56962
head 9.84599 -7.30667 1.82249
rclavicle 8.05078e-015 -1.59028e-014
rhumerus -52.3732 -39.7942 -54.7556
rradius 23.5096
rwrist 49.2192
rhand 12.502 -24.5034
rfingers 7.12502
rthumb 37.4954 -50.4381
lclavicle 8.05078e-015 -1.59028e-014
lhumerus -45.823 27.2599 69.2656
lradius 22.0121
lwrist -23.5972
lhand -16.8109 -5.99058
lfingers 7.12502
lthumb 9.41785 23.779
rfemur -5.12184 26.6822 25.5811
rtibia 0.655292
rfoot -12.4878 -27.9141
rtoes 2.39582
lfemur 3.94469 -49.1222 -8.409
ltibia -4.69432
lfoot -28.7133 56.1865
ltoes 14.7127
79
root 0.670294 17.4097 9.02557 11.1472 -2.21243 -10.3684
lowerback -1.17391 1.22698 6.49758
upperback -10.6078 2.18128 2.57542
thorax -10.551 0.624515 -1.02361
lowerneck -7.35327 -10.7073 -8.04707
upperneck 23.5448 -15.4728 6.51379
head 9.80898 -7.33906 1.79715
rclavicle -8.10048e-015 -2.10712e-014
rhumerus -52.4287 -39.8489 -54.679
rradius 23.4862
rwrist 49.2654
rhand 12.5234 -24.4128
rfingers 7.12502
rthumb 37.5156 -50.3422
lclavicle -8.10048e-015 -2.10712e-014
lhumerus -45.8037 27.3147 69.2223
lradius 21.9826
lwrist -23.712
lhand -16.841 -5.76211
lfingers 7.12502
lthumb 9.38877 24.0088
rfemur -5.09632 26.7188 25.5999
rtibia 0.663882
rfoot -12.5878 -27.9071
rtoes 2.77263
lfemur 3.96629 -49.0937 -8.41568
ltibia -4.69963
lfoot -28.581 56.2315
ltoes 14.4914
80
root 0.670566 17.41 9.02379 11.1435 -2.24363 -10.3566
lowerback -1.15061 1.23839 6.4954
upperback -10.6005 2.19705 2.56082
thorax -10.5548 0.631559 -1.03979
lowerneck -7.46863 -10.8009 -7.95356
upperneck 23.5905 -15.5558 6.27085
head 9.82435 -7.38952 1.68251
rclavicle -5.76476e-015 -5.96354e-015
rhumerus -52.4349 -39.9052 -54.6513
rradius 23.4661
rwrist 49.2892
rhand 12.646 -24.3775
rfingers 7.12502
rthumb 37.6314 -50.2761
lclavicle -5.76476e-015 -5.96354e-015
lhumerus -45.7354 27.3313 69.2142
lradius 21.9487
lwrist -23.7651
lhand -16.9037 -6.09671
lfingers 7.12502
lthumb 9.3283 23.6769
rfemur -5.09958 26.6704 25.5816
rtibia 0.647649
rfoot -12.4761 -27.8725
rtoes 2.51603
lfemur 3.95822 -49.0744 -8.43163
ltibia -4.67979
lfoot -28.6923 56.214
ltoes 14.5615
81
root 0.671073 17.4106 9.02239 11.1438 -2.25624 -10.3221
lowerback -1.14476 1.23644 6.45649
upperback -10.5962 2.19285 2.56113
thorax -10.5541 0.633102 -1.01784
lowerneck -7.51836 -10.8487 -7.9772
upperneck 23.6246 -15.6023 6.20071
head 9.8457 -7.41778 1.65227
rclavicle 3.926e-015 -2.0276e-014
rhumerus -52.4555 -39.9918 -54.5508
rradius 23.4247
rwrist 49.4069
rhand 12.7243 -24.3053
rfingers 7.12502
rthumb 37.7054 -50.184
lclavicle 3.926e-015 -2.0276e-014
lhumerus -45.7797 27.5849 68.9789
lradius 21.793
lwrist -24.0758
lhand -16.98 -7.1085
lfingers 7.12502
lthumb 9.25464 22.6684
rfemur -5.11138 26.6075 25.5361
rtibia 0.635253
rfoot -12.3371 -27.8553
rtoes 1.95355
lfemur 3.94212 -49.0453 -8.46417
ltibia -4.66304
lfoot -28.8212 56.1441
ltoes 14.7186
82
root 0.671231 17.4116 9.02136 11.1262 -2.24506 -10.3212
lowerback -1.11864 1.22165 6.4456
upperback -10.5981 2.1761 2.57485
thorax -10.574 0.626052 -0.996387
lowerneck -7.44809 -10.8444 -8.09103
upperneck 23.6033 -15.6149 6.33275
head 9.8478 -7.42252 1.71608
rclavicle -2.6339e-015 5.56597e-015
rhumerus -52.4582 -39.9878 -54.5179
rradius 23.4067
rwrist 49.4583
rhand 12.7469 -24.2213
rfingers 7.12502
rthumb 37.7268 -50.0943
lclavicle -2.6339e-015 5.56597e-015
lhumerus -46.0282 28.2254 68.2821
lradius 21.423
lwrist -24.8223
lhand -17.1258 -8.89992
lfingers 7.12502
lthumb 9.11392 20.8832
rfemur -5.09275 26.6435 25.5424
rtibia 0.634334
rfoot -12.3604 -27.8869
rtoes 1.96229
lfemur 3.96891 -49.0256 -8.46991
ltibia -4.69207
lfoot -28.7612 56.1149
ltoes 14.6998
83
root 0.671249 17.4124 9.02063 11.1199 -2.24042 -10.3328
lowerback -1.09775 1.2132 6.46587
upperback -10.6076 2.1683 2.57592
thorax -10.5979 0.619602 -1.00619
lowerneck -7.42885 -10.8377 -8.17876
upperneck 23.6353 -15.6309 6.46543
head 9.87659 -7.42393 1.77187
rclavicle -2.33572e-015 -2.46493e-014
rhumerus -52.4166 -39.8589 -54.642
rradius 23.4386
rwrist 49.311
rhand 12.7203 -24.2107
rfingers 7.12502
rthumb 37.7016 -50.0904
lclavicle -2.33572e-015 -2.46493e-014
lhumerus -45.8224 27.614 68.9277
lradius 21.8489
lwrist -24.0857
lhand -17.0472 -6.12641
lfingers 7.12502
lthumb 9.18976 23.6533
rfemur -5.08534 26.6916 25.558
rtibia 0.634449
rfoot -12.414 -27.9229
rtoes 2.09353
lfemur 3.99464 -49.0672 -8.46775
ltibia -4.70938
lfoot -28.7864 56.1423
ltoes 14.8438
